<?xml version="1.0" encoding="utf-8"?>
<!-- Generator: Adobe Illustrator 18.0.0, SVG Export Plug-In . SVG Version: 6.00 Build 0)  -->
<!DOCTYPE svg PUBLIC "-//W3C//DTD SVG 1.1//EN" "http://www.w3.org/Graphics/SVG/1.1/DTD/svg11.dtd">
<svg version="1.1" id="Layer_1" xmlns="http://www.w3.org/2000/svg" xmlns:xlink="http://www.w3.org/1999/xlink" x="0px" y="0px"
	 viewBox="0 344.7 617 103.3" enable-background="new 0 344.7 617 103.3" xml:space="preserve">
<g>
	<g enable-background="new    ">
		<path fill="black" d="M118.1,376.9c-0.7-2.6-1.8-5.3-5.2-5.3c-3.1,0-4.4,2.2-4.4,4.4c0,2.9,1.9,4.3,5.1,5.9
			c3.1,1.6,6.9,3.5,6.9,8c0,4.2-3.6,7.6-8.9,7.6c-1.6,0-2.9-0.3-3.9-0.6c-1-0.4-1.6-0.6-2-0.8c-0.3-0.8-0.8-4.3-1.1-6.2l1.2-0.3
			c0.6,2.4,2.4,6.5,6.6,6.5c3,0,4.8-1.9,4.8-4.8c0-3-2.2-4.4-5.2-6c-2.6-1.4-6.6-3.4-6.6-7.9c0-3.8,3.1-7.1,8.2-7.1
			c1.8,0,3.5,0.4,5,0.9c0.2,1.4,0.4,3,0.7,5.5L118.1,376.9z"/>
		<path fill="black" d="M144.9,396.8v-1c2.4-0.2,2.8-0.4,2.8-3.2v-6.7c0-2.8-1-4.6-3.5-4.6c-1.4,0-3,0.8-4.5,2.1
			c0.1,0.5,0.1,0.9,0.1,1.7v7.8c0,2.5,0.4,2.8,2.6,3v1h-8.6v-1c2.5-0.2,2.8-0.4,2.8-3.1v-6.9c0-3-1-4.6-3.5-4.6
			c-1.6,0-3.2,1.1-4.4,2.1v9.4c0,2.6,0.3,2.8,2.3,3.1v1h-8.4v-1c2.6-0.2,3-0.5,3-3.1v-8.3c0-2.6-0.1-2.8-2.4-3.1v-0.9
			c1.8-0.3,3.8-0.8,5.6-1.6v3.2c0.8-0.6,1.7-1.3,2.9-2c1-0.6,2-1.1,3.3-1.1c1.9,0,3.6,1.2,4.4,3.3c1.2-0.9,2.3-1.6,3.3-2.2
			c0.8-0.6,1.9-1,3-1c3.1,0,5.1,2.2,5.1,6.1v7.7c0,2.7,0.3,2.8,2.6,3.1v1H144.9z"/>
		<path fill="black" d="M155.7,396.8v-1c2.5-0.2,2.8-0.5,2.8-3.2v-8.2c0-2.5-0.1-2.6-2.5-3v-1c2-0.3,3.9-0.8,5.7-1.6v13.8
			c0,2.7,0.3,3,2.8,3.2v1H155.7z M157.8,373.3c0-1.2,1-2.1,2-2.1c1.1,0,2,0.9,2,2.1c0,1.1-0.9,2-2,2
			C158.8,375.4,157.8,374.4,157.8,373.3z"/>
		<path fill="black" d="M173.8,396.8c-0.7,0.4-1.3,0.5-1.7,0.5c-2.5,0-3.9-1.6-3.9-4.8v-11.7h-2.8l-0.2-0.4l1.1-1.2h1.8v-2.9
			l2.6-2.6l0.6,0.1v5.5h4.5c0.4,0.4,0.2,1.3-0.2,1.6h-4.3v10.3c0,3.2,1.3,3.8,2.3,3.8s1.9-0.4,2.5-0.7l0.4,1L173.8,396.8z"/>
		<path fill="black" d="M189.2,396.8v-1c2.3-0.2,2.6-0.5,2.6-3.1v-6.6c0-3.3-1.2-4.9-3.9-4.9c-1.5,0-3,0.8-4.2,2v9.5
			c0,2.6,0.2,2.8,2.6,3.1v1h-8.5v-1c2.4-0.2,2.8-0.4,2.8-3.1v-19.1c0-2.5-0.1-2.7-2.7-3v-0.9c1.9-0.3,4.3-0.9,5.9-1.4v13.5
			c1.4-1.4,3.6-2.9,5.7-2.9c3.2,0,5.5,2,5.5,6.8v7c0,2.6,0.3,2.9,2.6,3.1v1H189.2z"/>
		<path fill="black" d="M209.9,384.1c-0.8-2.4-2.2-4-4.1-4c-1.5,0-2.6,1.2-2.6,2.8c0,1.8,1.6,2.7,3.4,3.5c3,1.2,5,2.7,5,5.4
			c0,3.6-3.4,5.5-6.6,5.5c-2,0-3.9-0.8-4.6-1.4c-0.3-0.6-0.6-3.3-0.6-4.7l1-0.2c0.7,2.6,2.5,5,4.9,5c1.5,0,2.8-1.1,2.8-2.8
			c0-1.8-1.2-2.7-3.2-3.6c-2.4-1.1-5-2.4-5-5.5c0-2.8,2.4-5.2,6.1-5.2c1.6,0,2.7,0.4,3.6,0.7c0.3,0.9,0.8,3.3,0.9,4.3L209.9,384.1z"
			/>
		<path fill="black" d="M232.1,387.8c0,6.4-4.7,9.5-8.7,9.5c-5.5,0-8.8-4.4-8.8-8.8c0-6.6,5.1-9.6,8.8-9.6
			C228.4,378.9,232.1,382.8,232.1,387.8z M218.4,387.2c0,5,2.2,8.8,5.5,8.8c2.5,0,4.5-1.8,4.5-7.3c0-4.7-1.9-8.5-5.4-8.5
			C220.5,380.2,218.4,382.7,218.4,387.2z"/>
		<path fill="black" d="M245.7,396.8v-1c2.4-0.2,2.6-0.6,2.6-3.3v-6.7c0-2.8-1-4.6-3.6-4.6c-1.6,0-3.2,1-4.4,2v9.4
			c0,2.7,0.2,2.9,2.6,3.1v1h-8.7v-1c2.7-0.3,2.9-0.5,2.9-3.1v-8.3c0-2.6-0.2-2.7-2.4-3.1v-0.9c1.9-0.4,3.8-0.8,5.6-1.6v3.2
			c0.8-0.6,1.7-1.2,2.7-1.9c1.1-0.7,2.2-1.2,3.3-1.2c3.2,0,5.2,2.2,5.2,6.1v7.7c0,2.7,0.2,2.9,2.5,3.1v1H245.7z"/>
		<path fill="black" d="M256.3,396.8v-1c2.5-0.2,2.8-0.5,2.8-3.2v-8.2c0-2.5-0.1-2.6-2.5-3v-1c2-0.3,3.9-0.8,5.7-1.6v13.8
			c0,2.7,0.3,3,2.8,3.2v1H256.3z M258.4,373.3c0-1.2,1-2.1,2-2.1c1.1,0,2,0.9,2,2.1c0,1.1-0.9,2-2,2
			C259.4,375.4,258.4,374.4,258.4,373.3z"/>
		<path fill="black" d="M279.8,397.3c-0.6,0-1.4-0.4-1.9-0.8c-0.5-0.6-0.8-1.1-1-1.8c-1.6,1.1-3.5,2.6-4.7,2.6
			c-2.8,0-4.8-2.4-4.8-4.9c0-2,1-3.2,3.2-4c2.4-0.8,5.3-1.9,6.2-2.6v-0.7c0-2.9-1.4-4.5-3.4-4.5c-0.8,0-1.4,0.3-1.8,0.8
			c-0.5,0.5-0.9,1.4-1.2,2.6c-0.2,0.6-0.6,0.9-1.2,0.9c-0.7,0-1.8-0.8-1.8-1.7c0-0.6,0.5-1,1.3-1.6c1.1-0.8,3.7-2.4,6-2.8
			c1.2,0,2.4,0.4,3.3,1.1c1.4,1.2,1.8,2.8,1.8,4.9v7.4c0,1.8,0.7,2.4,1.4,2.4c0.5,0,1-0.2,1.4-0.4l0.4,1L279.8,397.3z M276.8,387.2
			c-0.8,0.4-2.8,1.3-3.6,1.7c-1.6,0.7-2.4,1.5-2.4,2.9c0,2.1,1.6,3.1,2.8,3.1c1,0,2.4-0.7,3.2-1.4V387.2z"/>
		<path fill="black" d="M295.7,396.8v-1c2.4-0.2,2.6-0.6,2.6-3.3v-6.7c0-2.8-1-4.6-3.6-4.6c-1.6,0-3.2,1-4.4,2v9.4
			c0,2.7,0.2,2.9,2.6,3.1v1h-8.7v-1c2.7-0.3,2.9-0.5,2.9-3.1v-8.3c0-2.6-0.2-2.7-2.4-3.1v-0.9c1.9-0.4,3.8-0.8,5.6-1.6v3.2
			c0.8-0.6,1.7-1.2,2.7-1.9c1.1-0.7,2.2-1.2,3.3-1.2c3.2,0,5.2,2.2,5.2,6.1v7.7c0,2.7,0.2,2.9,2.5,3.1v1H295.7z"/>
	</g>
	<g enable-background="new    ">
		<path fill="black" d="M133.3,411.9c-2.4,0.2-3,0.8-3.5,2.5c-0.3,1-0.8,3.1-1.5,6.8l-3,15.9H124L112.2,416h-0.1l-2.1,10.7
			c-0.7,3.4-1,5.4-1,6.7c-0.1,1.8,0.6,2.2,3.4,2.4l-0.2,1.1h-9.2l0.2-1.1c2.1-0.1,3-0.6,3.5-2.3c0.5-1.4,0.9-3.2,1.7-7l2.1-9.8
			c0.4-2,0.3-2.6-0.2-3.5c-0.5-0.8-1.2-1.1-3.4-1.2l0.2-1h5.8l11.8,20.4h0.2l1.8-10c0.7-3.7,1-5.7,1.1-6.8c0.1-1.9-0.5-2.3-3.5-2.5
			l0.3-1h9L133.3,411.9z"/>
		<path fill="black" d="M148.5,433.2c-2.2,2.7-4.8,4.2-5.8,4.2c-0.8,0-1.3-0.6-0.7-3.5l0.8-3.8h-0.1c-1.6,2.2-3.4,4.1-5.2,5.5
			c-1.3,1.1-2.6,1.8-3.7,1.8c-1,0-2.3-1.3-2.3-4.5c0-4,1.9-8.4,4.8-10.9c2-1.7,4.9-3.1,7.4-3.1c0.8,0,1.6,0.1,2.5,0.3
			c0.6,0.1,1.1,0.2,1.5,0.2l0.1,0.2c-0.6,2.5-1.8,7.9-2.8,13c-0.3,1.4-0.2,1.7,0.1,1.7c0.3,0,1.7-0.9,2.9-2.1L148.5,433.2z
			 M143.3,426.9c0.4-1.6,1-4.5,1.3-5.8c-0.6-0.3-1.6-0.6-2.7-0.6s-2.2,0.3-2.8,0.8c-2.7,2-4.3,6.7-4.3,10.7c0,1.8,0.5,2.6,1.1,2.6
			C137.5,434.8,142,429.7,143.3,426.9z"/>
		<path fill="black" d="M161.2,420.9l-4,0.2l-2.4,11.1c-0.4,2-0.2,2.4,0.2,2.4c0.7,0,2.6-1.3,3.6-2.3l0.6,0.8
			c-1.3,1.6-4.3,4.3-6.4,4.3c-0.9,0-1.7-1.2-0.8-5.3l2.4-11h-3l-0.1-0.4l1-1.2h2.4l0.9-3.8l3-2.5l0.4,0.2l-1.4,6h4.6L161.2,420.9z"
			/>
		<path fill="black" d="M170,433.4c-1.3,1.6-4.4,4-5.8,4c-0.8,0-1.3-0.6-0.5-3.9l2.5-10.2c0.2-0.9,0.2-1.3,0-1.3
			c-0.3,0-1.5,0.7-2.7,1.7l-0.5-0.9c2.2-2.2,5-3.8,6.1-3.8c0.9,0,0.8,1.3,0.4,3.2l-2.8,11.1c-0.2,1-0.2,1.3,0.1,1.3
			c0.5,0,1.9-1,2.8-1.9L170,433.4z M171.1,413c0,1.2-0.9,2.3-2.1,2.3c-1,0-1.6-0.7-1.7-1.8c0-1,0.8-2.4,2.2-2.4
			C170.5,411.2,171,412.1,171.1,413z"/>
		<path fill="black" d="M173.2,431.1c0-5.2,2.8-9.2,6.1-10.9c1.4-0.8,3.1-1.3,4.3-1.3c3.3,0,5.3,2.3,5.3,6.2
			c0,3.4-1.5,7.4-4.3,9.7c-1.7,1.4-3.9,2.5-6.2,2.5C174.7,437.4,173.2,434.4,173.2,431.1z M181.2,435.5c2.2-0.9,4.4-5.2,4.4-10.3
			c0-3.2-1.4-4.8-3.2-4.8c-0.6,0-1.1,0.2-1.5,0.4c-1.6,0.7-4.2,4-4.2,10.1c0,3,1.2,4.8,3.4,4.8C180.4,435.8,180.8,435.7,181.2,435.5
			z"/>
		<path fill="black" d="M209.6,433.5c-2.4,2.6-4.6,3.9-5.6,3.9c-1,0-1.4-1.1-0.6-4.2c0.8-3,1.4-5.9,2.2-8.9
			c0.6-2.3,0.3-2.9-0.3-2.9c-1.8,0-6.4,5-8.4,8.4c-0.5,2-1.1,4.4-1.6,6.8c-1,0.2-2.1,0.5-2.9,0.8l-0.2-0.3c1.1-4.3,2.3-9.1,3.2-13.6
			c0.3-1.3,0.2-1.6,0-1.6c-0.4,0-1.6,0.8-2.6,1.8l-0.5-1c2.2-2.4,4.5-3.8,5.6-3.8c0.9,0,1.1,1.4,0.3,4.4l-0.8,3.5h0.1
			c2.7-3.7,5.7-6,7.4-7c1-0.6,1.9-0.9,2.7-0.9c1,0,2.1,0.6,0.9,5.7c-0.6,2.7-1.3,5.5-2,8.3c-0.2,1.1-0.2,1.4,0.1,1.4
			c0.4,0,1.4-0.7,2.6-1.9L209.6,433.5z"/>
		<path fill="black" d="M229.4,433.2c-2.2,2.7-4.8,4.2-5.8,4.2c-0.8,0-1.3-0.6-0.7-3.5l0.8-3.8h-0.1c-1.6,2.2-3.4,4.1-5.2,5.5
			c-1.3,1.1-2.6,1.8-3.7,1.8c-1,0-2.3-1.3-2.3-4.5c0-4,1.9-8.4,4.8-10.9c2-1.7,4.9-3.1,7.4-3.1c0.8,0,1.6,0.1,2.5,0.3
			c0.6,0.1,1.1,0.2,1.5,0.2l0.1,0.2c-0.6,2.5-1.8,7.9-2.8,13c-0.3,1.4-0.2,1.7,0.1,1.7c0.3,0,1.7-0.9,2.9-2.1L229.4,433.2z
			 M224.2,426.9c0.4-1.6,1-4.5,1.3-5.8c-0.6-0.3-1.6-0.6-2.7-0.6s-2.2,0.3-2.8,0.8c-2.7,2-4.3,6.7-4.3,10.7c0,1.8,0.5,2.6,1.1,2.6
			C218.3,434.8,222.8,429.7,224.2,426.9z"/>
		<path fill="black" d="M239.2,433.1c-2.1,2.5-4.9,4.3-6.2,4.3c-0.8,0-1.4-0.9-0.6-4.8c1.4-6.6,2.8-13.1,4.2-19.7
			c0.4-1.7,0.2-2-1.7-2l-1.1,0l0.2-1c3.1-0.4,5.4-1.4,5.9-1.4c0.4,0,0.4,0.4,0.2,1.2c-1.6,7.7-3.3,15.5-5,23.4
			c-0.2,1.2-0.1,1.4,0.2,1.4c0.4,0,2.1-1,3.2-2.2L239.2,433.1z"/>
		<path fill="black" d="M273.7,436.9h-9.4l0.3-1.1c2.8-0.3,2.9-0.7,2.7-2.4c-0.3-1.7-0.6-3.6-1-5.9h-8.4c-0.7,1.3-1.9,3.6-2.8,5.4
			c-1.2,2.4-0.9,2.7,2.2,2.9l-0.2,1.1h-8.6l0.3-1.1c2.4-0.3,2.8-0.5,4.7-3.8l12.1-21.3l1.2-0.3l1.1,7.1c0.8,5.2,1.7,10.2,2.6,14.9
			c0.5,2.8,0.8,3.2,3.6,3.5L273.7,436.9z M264.4,415.4L264.4,415.4c-2.1,3.7-3.9,7-5.6,10.4h7.2L264.4,415.4z"/>
		<path fill="black" d="M283.9,433.4c-1.3,1.6-4.4,4-5.8,4c-0.8,0-1.3-0.6-0.5-3.9l2.5-10.2c0.2-0.9,0.2-1.3,0-1.3
			c-0.3,0-1.5,0.7-2.7,1.7l-0.5-0.9c2.2-2.2,5-3.8,6.1-3.8c0.9,0,0.8,1.3,0.4,3.2l-2.8,11.1c-0.2,1-0.2,1.3,0.1,1.3
			c0.5,0,1.9-1,2.8-1.9L283.9,433.4z M285,413c0,1.2-0.9,2.3-2.1,2.3c-1,0-1.6-0.7-1.7-1.8c0-1,0.8-2.4,2.2-2.4
			C284.4,411.2,284.9,412.1,285,413z"/>
		<path fill="black" d="M286.9,422.8c2-2.3,4.5-3.9,5.6-3.9c1,0,1,1.8,0.4,4.6l-0.4,2h0.1c2-3.9,4.4-6.6,6-6.6
			c0.7,0,1.4,0.4,1.7,1c0.3,0.5,0.3,1.2,0,1.7c-0.3,0.5-0.7,0.9-1,1.2c-0.4,0.2-0.7,0.2-0.9,0c-0.4-0.5-0.9-0.7-1.4-0.7
			c-0.5,0-1.1,0.4-2,1.7c-0.9,1.3-2.1,3.2-2.8,5c-0.6,2.7-1.1,5.2-1.6,7.8c-0.9,0.1-2,0.4-2.8,0.7l-0.3-0.3c1-4.3,2.2-9.2,2.9-13.5
			c0.2-1.3,0.2-1.7-0.1-1.7c-0.4,0-1.6,0.8-2.8,1.9L286.9,422.8z"/>
		<path fill="black" d="M327.3,433.2c-2.2,2.7-4.8,4.2-5.8,4.2c-0.8,0-1.3-0.6-0.7-3.5l0.8-3.8h-0.1c-1.6,2.2-3.4,4.1-5.2,5.5
			c-1.3,1.1-2.6,1.8-3.7,1.8c-1,0-2.3-1.3-2.3-4.5c0-4,1.9-8.4,4.8-10.9c2-1.7,4.9-3.1,7.4-3.1c0.8,0,1.6,0.1,2.5,0.3
			c0.6,0.1,1.1,0.2,1.5,0.2l0.1,0.2c-0.6,2.5-1.8,7.9-2.8,13c-0.3,1.4-0.2,1.7,0.1,1.7c0.3,0,1.7-0.9,2.9-2.1L327.3,433.2z
			 M322.1,426.9c0.4-1.6,1-4.5,1.3-5.8c-0.6-0.3-1.6-0.6-2.7-0.6s-2.2,0.3-2.8,0.8c-2.7,2-4.3,6.7-4.3,10.7c0,1.8,0.5,2.6,1.1,2.6
			C316.2,434.8,320.8,429.7,322.1,426.9z"/>
		<path fill="black" d="M347.5,433.5c-2.4,2.6-4.6,3.9-5.6,3.9c-1,0-1.4-1.1-0.6-4.2c0.8-3,1.4-5.9,2.2-8.9
			c0.6-2.3,0.3-2.9-0.3-2.9c-1.8,0-6.4,5-8.4,8.4c-0.5,2-1.1,4.4-1.6,6.8c-1,0.2-2.1,0.5-2.9,0.8L330,437c1.1-4.3,2.3-9.1,3.2-13.6
			c0.3-1.3,0.2-1.6,0-1.6c-0.4,0-1.6,0.8-2.6,1.8l-0.5-1c2.2-2.4,4.5-3.8,5.6-3.8c0.9,0,1.1,1.4,0.3,4.4l-0.8,3.5h0.1
			c2.7-3.7,5.7-6,7.4-7c1-0.6,1.9-0.9,2.7-0.9c1,0,2.1,0.6,0.9,5.7c-0.6,2.7-1.3,5.5-2,8.3c-0.2,1.1-0.2,1.4,0.1,1.4
			c0.4,0,1.4-0.7,2.6-1.9L347.5,433.5z"/>
		<path fill="black" d="M368.1,433.3c-2.1,2.5-4.8,4-5.9,4c-0.8,0-1.4-0.6-0.7-3.7l0.7-3.4l-0.1,0c-1.8,2.4-3.9,4.2-5.3,5.2
			c-1.5,1.2-2.8,1.8-3.9,1.8c-1.3,0-2.6-1.6-2.6-4.8c0-3.8,1.7-8,4.6-10.6c1.9-1.6,5.2-3.1,7.1-3.1c0.6,0,1.4,0,2.4,0.4l1.3-6.6
			c0.4-1.8,0.2-2-1.5-2H363l0.1-1c3.4-0.4,5.5-1.4,6.1-1.4c0.4,0,0.4,0.3,0.3,1.1c-1.9,8-3.6,15.8-5,23.5c-0.2,1-0.1,1.3,0.2,1.3
			c0.5,0,1.8-0.9,2.8-2L368.1,433.3z M362.7,427.4l1.3-5.7c-0.6-0.6-2-1-3.2-1c-1.2,0-2.1,0.3-2.8,0.8c-2.7,1.9-4.2,7-4.2,10.3
			c0,2,0.6,3,1.2,3C357,434.8,361.4,429.8,362.7,427.4z"/>
		<path fill="black" d="M380.8,428.9c0.4,3,2.1,7.2,6.5,7.2c2.8,0,4.8-2,4.8-5.2c0-2.3-1.4-3.8-3.7-5.6l-1.1-0.9
			c-1.8-1.5-4.5-3.7-4.5-7c0-4.2,3.3-7.2,8.1-7.2c1.3,0,2.7,0.3,3.8,0.7c0.8,0.3,1.4,0.5,1.8,0.6c-0.2,1.7-0.1,3.8-0.1,5.6l-1.2,0.1
			c-0.3-3-1.4-5.7-4.8-5.7c-2.8,0-4.5,2.2-4.5,4.7c0,2.3,1.6,3.8,3.7,5.4l1.2,0.9c2.8,2.1,4.6,4.2,4.6,7.3c0,4.7-4.1,7.6-8.7,7.6
			c-3.2,0-6-1.5-6.9-2.5c0-0.9,0-3.1-0.1-5.9L380.8,428.9z"/>
		<path fill="black" d="M405.2,419.4c1.1-0.3,2.6-0.5,3.7-0.5c4.1,0,5.8,2,5.8,5.5c0,2.6-1.1,5.7-3.4,8.3c-2,2.2-4.9,4-7.4,4.6
			c-0.6,0-1.6-0.1-2.4-0.4l-1.1,5.6c-0.5,2.3-0.2,2.6,1.7,2.8l1,0.1l-0.1,1l-9.2,0.5l0.2-1c2.5-0.5,3-0.8,3.5-3.3
			c1.5-7,3-14,4.5-20.9c-1.3,0.4-2.3,1-3.2,1.4l-0.3-1c1.1-0.8,2.5-1.5,3.8-2l0.4-1.8c0.8-0.9,2-1.8,2.9-2.3l0.4,0.2L405.2,419.4z
			 M402.2,434.2c0.4,0.6,1.5,1.4,2.5,1.4c2.8,0,6.7-5.4,6.7-10.5c0-3.6-1.9-4.4-4.2-4.4c-0.6,0-1.5,0.1-2.3,0.3L402.2,434.2z"/>
		<path fill="black" d="M434.3,433.2c-2.2,2.7-4.8,4.2-5.8,4.2c-0.8,0-1.3-0.6-0.7-3.5l0.8-3.8h-0.1c-1.6,2.2-3.4,4.1-5.2,5.5
			c-1.3,1.1-2.6,1.8-3.7,1.8c-1,0-2.3-1.3-2.3-4.5c0-4,1.9-8.4,4.8-10.9c2-1.7,4.9-3.1,7.4-3.1c0.8,0,1.6,0.1,2.5,0.3
			c0.6,0.1,1.1,0.2,1.5,0.2l0.1,0.2c-0.6,2.5-1.8,7.9-2.8,13c-0.3,1.4-0.2,1.7,0.1,1.7c0.3,0,1.7-0.9,2.9-2.1L434.3,433.2z
			 M429.1,426.9c0.4-1.6,1-4.5,1.3-5.8c-0.6-0.3-1.6-0.6-2.7-0.6s-2.2,0.3-2.8,0.8c-2.7,2-4.3,6.7-4.3,10.7c0,1.8,0.5,2.6,1.1,2.6
			C423.2,434.8,427.7,429.7,429.1,426.9z"/>
		<path fill="black" d="M449.1,432.9c-2.5,2.8-5.6,4.4-8,4.4c-2.6,0-4.3-2-4.3-5.9c0-3.3,1.6-7.2,4.1-9.6c1.6-1.4,4.4-3,6.4-3
			c1.7,0,3,1,3,2c0,0.6-0.4,1.4-1.3,1.8c-0.3,0.2-0.6,0.1-0.9-0.2c-0.8-1.2-1.8-1.7-3-1.7c-1.4,0-2.6,1.2-3.3,2.6
			c-1,1.8-1.8,4.5-1.8,7.2c0,2.8,1.1,4.3,2.8,4.3c2,0,4.5-1.8,5.6-3L449.1,432.9z"/>
		<path fill="black" d="M464.6,432.8c-3.5,3.8-6.5,4.5-8.4,4.5c-1.8,0-4.4-1.1-4.4-5.8c0-3.8,1.6-8,4.8-10.4
			c1.7-1.3,3.8-2.2,5.5-2.2c2.1,0,3.5,1.5,3.5,3.2c0,4-6.7,6.1-10.6,7.1c-0.1,0.5-0.1,0.9-0.1,1.3c0,2.2,0.7,4.5,3.1,4.5
			c1.7,0,3.8-1.1,5.8-3.1L464.6,432.8z M459,421c-1.1,0.6-3.1,2.4-3.8,6.9c5.7-1.5,7.4-3.4,7.4-5.2c0-1.4-0.8-2.2-2-2.2
			C460.1,420.5,459.4,420.7,459,421z"/>
		<path fill="black" d="M511.4,411.9c-3.4,0.3-3.6,0.4-4.1,3.8c-0.8,5.8-1.5,10.5-2.2,15.7c-0.5,3.9-0.2,4,3,4.3l-0.2,1.1h-10.1
			l0.2-1.1c3.1-0.3,3.3-0.5,3.9-4.3c0.8-5.9,1.8-11.2,2.6-16.9h-0.1l-13.3,22.1h-0.9c-1.3-7.2-2.6-14.1-4.1-21.7h-0.1l-2.9,10.6
			c-1.1,4.1-1.7,6.3-1.9,7.7c-0.3,1.8,0.1,2.2,3,2.5l-0.2,1.1h-9l0.2-1.1c2.3-0.2,3.1-0.8,3.8-2.4s1.4-4,2.9-9.2l2.2-7.6
			c1.2-4,1-4.3-2.8-4.6l0.3-1h6.7c1.4,6.6,2.7,12.9,4.4,20.1l12.5-20.1h6.5L511.4,411.9z"/>
		<path fill="black" d="M529.4,433.3c-1.9,2.3-4.6,4.1-5.8,4.1c-0.8,0-1.4-0.8-0.6-4.2c0.3-1.4,0.5-2.2,0.8-3.5h-0.1
			c-2,2.6-4.3,5-6.4,6.5c-1.1,0.8-2.3,1.2-3.2,1.2c-1.1,0-2.4-0.8-1.3-5.1c0.7-3.1,1.4-6.2,2.2-9.2c0.2-1,0.2-1.4-0.1-1.4
			c-0.3,0-1.4,0.8-2.8,1.9l-0.4-1c2.3-2.3,4.8-3.8,5.9-3.8c0.9,0,1.1,0.8,0.4,3.5c-0.7,3.2-1.4,6.4-2.2,9.6c-0.4,2-0.1,2.6,0.5,2.6
			c2.2,0,6.7-5.4,8.3-8.3c0.4-1.8,0.9-4,1.4-6.4l2.8-1h0.4c-1.1,4.2-2.1,8.7-3.1,13.9c-0.2,1.2-0.2,1.6,0.1,1.6c0.4,0,1.8-1,2.9-2.1
			L529.4,433.3z"/>
		<path fill="black" d="M531.1,434.5c0-0.7,0.5-1.3,1.2-1.7c0.5-0.2,0.8-0.2,1,0.1c1,1.6,2.5,2.4,3.8,2.4c1.6,0,2.6-1.1,2.6-2.4
			c0-1-0.4-1.9-2.3-3.4c-1.8-1.4-3.5-2.8-3.5-4.9c0-1.2,0.5-2.5,2.1-3.9c1.2-1.1,3.2-1.9,4.4-1.9c1.8,0,3.1,1.2,3.1,2.2
			c0,0.7-0.4,1.3-1,1.6c-0.4,0.2-0.6,0.2-0.9-0.2c-0.8-1-1.8-1.8-3.1-1.8c-1.2,0-2.2,0.9-2.2,2.2c0,1.4,1.2,2.4,2.6,3.6
			c2.4,1.8,3.4,3,3.4,4.7c0,3-4,6-7.2,6C533.3,437.4,531.1,435.9,531.1,434.5z"/>
		<path fill="black" d="M558.9,432.8c-3.5,3.8-6.5,4.5-8.4,4.5c-1.8,0-4.4-1.1-4.4-5.8c0-3.8,1.6-8,4.8-10.4
			c1.7-1.3,3.8-2.2,5.5-2.2c2.1,0,3.5,1.5,3.5,3.2c0,4-6.7,6.1-10.6,7.1c-0.1,0.5-0.1,0.9-0.1,1.3c0,2.2,0.7,4.5,3.1,4.5
			c1.7,0,3.8-1.1,5.8-3.1L558.9,432.8z M553.2,421c-1.1,0.6-3.1,2.4-3.8,6.9c5.7-1.5,7.4-3.4,7.4-5.2c0-1.4-0.8-2.2-2-2.2
			C554.3,420.5,553.7,420.7,553.2,421z"/>
		<path fill="black" d="M580.5,433.3c-1.9,2.3-4.6,4.1-5.8,4.1c-0.8,0-1.4-0.8-0.6-4.2c0.3-1.4,0.5-2.2,0.8-3.5h-0.1
			c-2,2.6-4.3,5-6.4,6.5c-1.1,0.8-2.3,1.2-3.2,1.2c-1.1,0-2.4-0.8-1.3-5.1c0.7-3.1,1.4-6.2,2.2-9.2c0.2-1,0.2-1.4-0.1-1.4
			c-0.3,0-1.4,0.8-2.8,1.9l-0.4-1c2.3-2.3,4.8-3.8,5.9-3.8c0.9,0,1.1,0.8,0.4,3.5c-0.7,3.2-1.4,6.4-2.2,9.6c-0.4,2-0.1,2.6,0.5,2.6
			c2.2,0,6.7-5.4,8.3-8.3c0.4-1.8,0.9-4,1.4-6.4l2.8-1h0.4c-1.1,4.2-2.1,8.7-3.1,13.9c-0.2,1.2-0.2,1.6,0.1,1.6c0.4,0,1.8-1,2.9-2.1
			L580.5,433.3z"/>
		<path fill="black" d="M611.1,433.5c-2.1,2.4-4.6,3.8-5.6,3.8s-1.3-1.2-0.6-4.1l2.2-9.2c0.4-2,0.2-2.6-0.4-2.6
			c-1.9,0-6.8,5.7-8.2,8.4c-0.5,1.9-1.1,4.6-1.6,6.9c-1,0.1-2.1,0.4-2.9,0.7l-0.2-0.3c1-4,2-8.1,2.9-12c0.6-2.7,0.5-3.7-0.3-3.7
			c-1.9,0-6.8,5.8-8.1,8.4c-0.5,1.8-1.1,4.5-1.6,6.9c-1,0.1-2,0.4-2.9,0.7l-0.3-0.3c1.2-4.5,2.3-9.1,3.3-13.6c0.3-1.4,0.2-1.7,0-1.7
			c-0.4,0-1.8,1.1-2.8,2l-0.5-1c2.2-2.4,4.6-3.8,5.6-3.8s1.2,1.5,0.3,4.9l-0.7,2.8h0.1c2.7-3.8,5.5-6,7.2-7c0.9-0.5,1.7-0.8,2.5-0.8
			c1.1,0,2.1,1,1,6.1l-0.4,1.6h0.1c2.7-3.8,5.6-6,7.3-7c1-0.6,1.7-0.8,2.4-0.8c0.8,0,2.1,0.5,0.8,5.8l-2,8.4c-0.2,1-0.2,1.3,0.1,1.3
			c0.3,0,1.6-0.7,2.7-1.8L611.1,433.5z"/>
	</g>
	<g>
		<path fill="black" d="M65.2,398.8c-4.1-4-9.2-4.3-9.5-4.3l5.2,7.9l5.8,8.9l-16.9-11l0,0c0.4,0.3,3.7,3.8,2.2,9.5
			c-2.1,8.1,4.2,8.8,4.2,8.8c-4.1,2.4-9.3-1.3-9.5-5.7c-0.1-5.8-3.6-9.7-3.7-9.8l0,0L39,422.7l-4.1-19.7l0,0c0,0.6,0,5.2-5.1,8.2
			c-7.2,4.2-3.2,9.2-3.2,9.2c-4.6-1.2-5.7-7.6-2.7-10.7c4-4.1,4.3-9.3,4.3-9.5l-16.8,11l11-16.8l0,0c-0.3,0.4-3.7,3.7-9.5,2.2
			c-8.1-2.1-8.8,4.2-8.8,4.2c-2.4-4.1,1.3-9.3,5.7-9.5c5.8-0.1,9.7-3.6,9.8-3.7l0,0L0,383.7l19.7-4.1l0,0c-0.6,0-5.2,0-8.2-5.1
			c-4.1-7.2-9.2-3.2-9.2-3.2c1.2-4.6,7.6-5.7,10.7-2.7c4.2,4,9.3,4.3,9.6,4.3l0,0l-2-3.1l-9-13.7l16.8,11l0,0
			c-0.4-0.3-3.7-3.8-2.2-9.5c2.1-8.1-4.2-8.8-4.2-8.8c4.1-2.4,9.3,1.3,9.5,5.7c0.1,5.8,3.4,9.6,3.7,9.8l0,0l4.1-19.7l4.1,19.7l0,0
			c0-0.6,0-5.2,5.1-8.2c7.2-4.1,3.2-9.2,3.2-9.2c4.6,1.2,5.7,7.6,2.7,10.7c-4,4.1-4.3,9.2-4.3,9.5l0,0l16.9-10.9l-11.1,16.8l0,0
			c0.4-0.4,3.8-3.7,9.5-2.2c8.1,2.1,8.8-4.2,8.8-4.2c2.4,4.1-1.3,9.3-5.7,9.5c-5.8,0.1-9.6,3.4-9.8,3.7l0,0l19.7,4.1l-19.7,4.1l0,0
			c0.6,0,5.2,0,8.2,5.1c4.2,7.2,9.2,3.2,9.2,3.2C74.6,400.7,68.3,401.8,65.2,398.8z"/>
	</g>
</g>
</svg>
